<?xml version="1.0" standalone="no"?>
<!DOCTYPE svg PUBLIC "-//W3C//DTD SVG 20010904//EN"
 "http://www.w3.org/TR/2001/REC-SVG-20010904/DTD/svg10.dtd">
<svg version="1.0" xmlns="http://www.w3.org/2000/svg"
 width="945.000000pt" height="945.000000pt" viewBox="0 0 945.000000 945.000000"
 preserveAspectRatio="xMidYMid meet">
<metadata>
Created by potrace 1.11, written by Peter Selinger 2001-2013
</metadata>
<g transform="translate(0.000000,945.000000) scale(0.100000,-0.100000)"
fill="#000000" stroke="none">
<path d="M1364 9440 c-351 -37 -661 -187 -914 -440 -260 -260 -404 -565 -441
-933 -6 -67 -9 -1245 -7 -3412 l3 -3310 23 -107 c31 -147 64 -243 127 -375 77
-161 162 -280 295 -413 256 -257 572 -405 935 -440 152 -14 6527 -14 6680 0
269 25 530 122 749 277 104 74 275 245 349 350 158 222 250 474 277 758 13
140 13 6514 0 6660 -33 369 -181 687 -440 945 -218 219 -473 355 -787 422
l-108 23 -3335 1 c-1834 1 -3367 -2 -3406 -6z m1081 -2402 c7 -18 239 -681
515 -1473 275 -792 502 -1440 503 -1442 2 -1 232 656 511 1460 280 804 514
1468 519 1475 8 9 97 12 411 10 l401 -3 3 -2217 2 -2218 -335 0 -335 0 -2
1530 -3 1529 -384 -1087 c-212 -598 -412 -1162 -444 -1254 l-60 -168 -282 0
c-156 0 -285 4 -287 9 -1 4 -201 555 -443 1223 l-440 1214 -3 -1498 -2 -1498
-335 0 -335 0 0 2213 c0 1218 3 2217 7 2220 3 4 186 7 405 7 l399 0 14 -32z
m4772 -1214 c195 -28 380 -97 524 -194 141 -96 295 -281 368 -444 46 -102 90
-248 114 -380 21 -114 22 -150 22 -591 0 -441 -1 -477 -22 -590 -60 -326 -162
-536 -351 -717 -170 -163 -349 -252 -617 -305 -138 -27 -473 -24 -612 5 -559
120 -876 487 -952 1102 -17 135 -14 923 4 1050 60 417 237 714 540 901 126 78
327 147 490 168 118 15 378 12 492 -5z"/>
<path d="M6864 5130 c-191 -24 -335 -129 -413 -301 -52 -114 -62 -194 -68
-509 -10 -546 22 -717 163 -869 102 -111 199 -151 384 -158 94 -4 142 -1 194
11 150 35 265 127 335 267 72 143 76 178 76 649 0 465 -2 485 -72 630 -100
209 -324 313 -599 280z"/>
</g>
</svg>
